<mxfile host="app.diagrams.net" modified="2022-11-06T20:58:44.612Z" agent="5.0 (Windows NT 10.0; Win64; x64) AppleWebKit/537.36 (KHTML, like Gecko) Chrome/106.0.0.0 Safari/537.36" etag="TldgHB9ptma5xUdsL-eg" version="20.5.1" type="github">
  <diagram id="-QTC5YhXDy4I8rQjBGPy" name="Page-1">
    <mxGraphModel dx="3837" dy="2681" grid="1" gridSize="10" guides="1" tooltips="1" connect="1" arrows="1" fold="1" page="1" pageScale="1" pageWidth="827" pageHeight="1169" math="0" shadow="0">
      <root>
        <mxCell id="0" />
        <mxCell id="1" parent="0" />
        <mxCell id="gGllVryrbf8ipJSGgLWO-30" value="" style="edgeStyle=orthogonalEdgeStyle;rounded=0;orthogonalLoop=1;jettySize=auto;html=1;" parent="1" source="gGllVryrbf8ipJSGgLWO-13" target="gGllVryrbf8ipJSGgLWO-28" edge="1">
          <mxGeometry relative="1" as="geometry">
            <Array as="points">
              <mxPoint x="995" y="130" />
            </Array>
          </mxGeometry>
        </mxCell>
        <mxCell id="gGllVryrbf8ipJSGgLWO-36" value="" style="edgeStyle=orthogonalEdgeStyle;rounded=0;orthogonalLoop=1;jettySize=auto;html=1;" parent="1" source="gGllVryrbf8ipJSGgLWO-13" target="gGllVryrbf8ipJSGgLWO-33" edge="1">
          <mxGeometry relative="1" as="geometry" />
        </mxCell>
        <mxCell id="gGllVryrbf8ipJSGgLWO-41" value="" style="edgeStyle=orthogonalEdgeStyle;rounded=0;orthogonalLoop=1;jettySize=auto;html=1;" parent="1" source="gGllVryrbf8ipJSGgLWO-13" target="gGllVryrbf8ipJSGgLWO-38" edge="1">
          <mxGeometry relative="1" as="geometry" />
        </mxCell>
        <mxCell id="gGllVryrbf8ipJSGgLWO-43" value="" style="edgeStyle=orthogonalEdgeStyle;rounded=0;orthogonalLoop=1;jettySize=auto;html=1;" parent="1" source="gGllVryrbf8ipJSGgLWO-13" target="gGllVryrbf8ipJSGgLWO-42" edge="1">
          <mxGeometry relative="1" as="geometry" />
        </mxCell>
        <mxCell id="Ex0EIse3YdcYi0-qsqE2-28" value="" style="edgeStyle=orthogonalEdgeStyle;rounded=0;orthogonalLoop=1;jettySize=auto;html=1;" parent="1" source="gGllVryrbf8ipJSGgLWO-13" target="gGllVryrbf8ipJSGgLWO-32" edge="1">
          <mxGeometry relative="1" as="geometry" />
        </mxCell>
        <mxCell id="gGllVryrbf8ipJSGgLWO-13" value="Stadium" style="whiteSpace=wrap;html=1;align=center;" parent="1" vertex="1">
          <mxGeometry x="1095" y="122.5" width="100" height="40" as="geometry" />
        </mxCell>
        <mxCell id="gGllVryrbf8ipJSGgLWO-67" value="" style="edgeStyle=orthogonalEdgeStyle;rounded=0;orthogonalLoop=1;jettySize=auto;html=1;" parent="1" source="gGllVryrbf8ipJSGgLWO-14" target="gGllVryrbf8ipJSGgLWO-66" edge="1">
          <mxGeometry relative="1" as="geometry" />
        </mxCell>
        <mxCell id="gGllVryrbf8ipJSGgLWO-84" value="" style="edgeStyle=orthogonalEdgeStyle;rounded=0;orthogonalLoop=1;jettySize=auto;html=1;startSize=0;endSize=0;sourcePerimeterSpacing=6;targetPerimeterSpacing=6;" parent="1" source="gGllVryrbf8ipJSGgLWO-14" target="gGllVryrbf8ipJSGgLWO-83" edge="1">
          <mxGeometry relative="1" as="geometry" />
        </mxCell>
        <mxCell id="gGllVryrbf8ipJSGgLWO-86" value="" style="edgeStyle=orthogonalEdgeStyle;rounded=0;orthogonalLoop=1;jettySize=auto;html=1;startSize=0;endSize=0;sourcePerimeterSpacing=6;targetPerimeterSpacing=6;" parent="1" source="gGllVryrbf8ipJSGgLWO-14" target="gGllVryrbf8ipJSGgLWO-85" edge="1">
          <mxGeometry relative="1" as="geometry" />
        </mxCell>
        <mxCell id="gGllVryrbf8ipJSGgLWO-88" value="" style="edgeStyle=orthogonalEdgeStyle;rounded=0;orthogonalLoop=1;jettySize=auto;html=1;startSize=0;endSize=0;sourcePerimeterSpacing=6;targetPerimeterSpacing=6;" parent="1" source="gGllVryrbf8ipJSGgLWO-14" target="gGllVryrbf8ipJSGgLWO-87" edge="1">
          <mxGeometry relative="1" as="geometry" />
        </mxCell>
        <mxCell id="gGllVryrbf8ipJSGgLWO-14" value="User" style="whiteSpace=wrap;html=1;align=center;" parent="1" vertex="1">
          <mxGeometry x="325" y="470" width="90" height="40" as="geometry" />
        </mxCell>
        <mxCell id="gGllVryrbf8ipJSGgLWO-47" value="" style="edgeStyle=orthogonalEdgeStyle;rounded=0;orthogonalLoop=1;jettySize=auto;html=1;" parent="1" source="gGllVryrbf8ipJSGgLWO-12" target="gGllVryrbf8ipJSGgLWO-44" edge="1">
          <mxGeometry relative="1" as="geometry">
            <Array as="points">
              <mxPoint x="355" y="90" />
            </Array>
          </mxGeometry>
        </mxCell>
        <mxCell id="gGllVryrbf8ipJSGgLWO-48" value="" style="edgeStyle=orthogonalEdgeStyle;rounded=0;orthogonalLoop=1;jettySize=auto;html=1;" parent="1" source="gGllVryrbf8ipJSGgLWO-12" target="gGllVryrbf8ipJSGgLWO-45" edge="1">
          <mxGeometry relative="1" as="geometry">
            <Array as="points">
              <mxPoint x="373" y="70" />
            </Array>
          </mxGeometry>
        </mxCell>
        <mxCell id="gGllVryrbf8ipJSGgLWO-49" value="" style="edgeStyle=orthogonalEdgeStyle;rounded=0;orthogonalLoop=1;jettySize=auto;html=1;" parent="1" source="gGllVryrbf8ipJSGgLWO-12" target="gGllVryrbf8ipJSGgLWO-46" edge="1">
          <mxGeometry relative="1" as="geometry" />
        </mxCell>
        <mxCell id="gGllVryrbf8ipJSGgLWO-12" value="Clubs" style="whiteSpace=wrap;html=1;align=center;" parent="1" vertex="1">
          <mxGeometry x="425" y="65" width="100" height="40" as="geometry" />
        </mxCell>
        <mxCell id="gGllVryrbf8ipJSGgLWO-28" value="Name" style="ellipse;whiteSpace=wrap;html=1;align=center;" parent="1" vertex="1">
          <mxGeometry x="965" y="90" width="60" height="20" as="geometry" />
        </mxCell>
        <mxCell id="gGllVryrbf8ipJSGgLWO-32" value="Location" style="ellipse;whiteSpace=wrap;html=1;align=center;" parent="1" vertex="1">
          <mxGeometry x="1120" y="230" width="50" height="30" as="geometry" />
        </mxCell>
        <mxCell id="gGllVryrbf8ipJSGgLWO-33" value="ID" style="ellipse;whiteSpace=wrap;html=1;align=center;fontStyle=4;" parent="1" vertex="1">
          <mxGeometry x="950" y="132.5" width="60" height="20" as="geometry" />
        </mxCell>
        <mxCell id="gGllVryrbf8ipJSGgLWO-38" value="Capacity" style="ellipse;whiteSpace=wrap;html=1;align=center;" parent="1" vertex="1">
          <mxGeometry x="1290" y="132.5" width="50" height="20" as="geometry" />
        </mxCell>
        <mxCell id="gGllVryrbf8ipJSGgLWO-42" value="Status" style="ellipse;whiteSpace=wrap;html=1;align=center;" parent="1" vertex="1">
          <mxGeometry x="1060" y="60" width="50" height="20" as="geometry" />
        </mxCell>
        <mxCell id="gGllVryrbf8ipJSGgLWO-44" value="Location" style="ellipse;whiteSpace=wrap;html=1;align=center;" parent="1" vertex="1">
          <mxGeometry x="325" y="145" width="60" height="20" as="geometry" />
        </mxCell>
        <mxCell id="gGllVryrbf8ipJSGgLWO-45" value="Name" style="ellipse;whiteSpace=wrap;html=1;align=center;" parent="1" vertex="1">
          <mxGeometry x="345" y="30" width="55" height="20" as="geometry" />
        </mxCell>
        <mxCell id="gGllVryrbf8ipJSGgLWO-46" value="ID" style="ellipse;whiteSpace=wrap;html=1;align=center;fontStyle=4;" parent="1" vertex="1">
          <mxGeometry x="430" y="10" width="40" height="30" as="geometry" />
        </mxCell>
        <mxCell id="9b3V9Wi5WnPuCYdalmGk-65" value="" style="edgeStyle=orthogonalEdgeStyle;rounded=0;orthogonalLoop=1;jettySize=auto;html=1;" parent="1" source="gGllVryrbf8ipJSGgLWO-50" target="gGllVryrbf8ipJSGgLWO-53" edge="1">
          <mxGeometry relative="1" as="geometry" />
        </mxCell>
        <mxCell id="gGllVryrbf8ipJSGgLWO-50" value="Representative" style="shape=ext;margin=3;double=1;whiteSpace=wrap;html=1;align=center;" parent="1" vertex="1">
          <mxGeometry x="10" y="-180" width="100" height="40" as="geometry" />
        </mxCell>
        <mxCell id="gGllVryrbf8ipJSGgLWO-53" value="Name" style="ellipse;whiteSpace=wrap;html=1;align=center;" parent="1" vertex="1">
          <mxGeometry x="32" y="-110" width="56" height="20" as="geometry" />
        </mxCell>
        <mxCell id="gGllVryrbf8ipJSGgLWO-61" value="" style="edgeStyle=orthogonalEdgeStyle;rounded=0;orthogonalLoop=1;jettySize=auto;html=1;" parent="1" source="gGllVryrbf8ipJSGgLWO-57" target="gGllVryrbf8ipJSGgLWO-60" edge="1">
          <mxGeometry relative="1" as="geometry" />
        </mxCell>
        <mxCell id="9b3V9Wi5WnPuCYdalmGk-21" value="" style="edgeStyle=orthogonalEdgeStyle;rounded=0;orthogonalLoop=1;jettySize=auto;html=1;startArrow=none;" parent="1" source="9b3V9Wi5WnPuCYdalmGk-22" target="gGllVryrbf8ipJSGgLWO-66" edge="1">
          <mxGeometry relative="1" as="geometry" />
        </mxCell>
        <mxCell id="gGllVryrbf8ipJSGgLWO-57" value="Manager" style="shape=ext;margin=3;double=1;whiteSpace=wrap;html=1;align=center;" parent="1" vertex="1">
          <mxGeometry x="1600" y="550" width="100" height="40" as="geometry" />
        </mxCell>
        <mxCell id="gGllVryrbf8ipJSGgLWO-60" value="Name" style="ellipse;whiteSpace=wrap;html=1;align=center;" parent="1" vertex="1">
          <mxGeometry x="1640" y="425" width="60" height="20" as="geometry" />
        </mxCell>
        <mxCell id="gGllVryrbf8ipJSGgLWO-77" value="" style="edgeStyle=orthogonalEdgeStyle;rounded=0;orthogonalLoop=1;jettySize=auto;html=1;startSize=0;endSize=0;sourcePerimeterSpacing=6;targetPerimeterSpacing=6;" parent="1" source="gGllVryrbf8ipJSGgLWO-66" target="gGllVryrbf8ipJSGgLWO-76" edge="1">
          <mxGeometry relative="1" as="geometry" />
        </mxCell>
        <mxCell id="gGllVryrbf8ipJSGgLWO-79" value="" style="edgeStyle=orthogonalEdgeStyle;rounded=0;orthogonalLoop=1;jettySize=auto;html=1;startSize=0;endSize=0;targetPerimeterSpacing=6;startArrow=none;" parent="1" source="9b3V9Wi5WnPuCYdalmGk-28" target="gGllVryrbf8ipJSGgLWO-76" edge="1">
          <mxGeometry relative="1" as="geometry" />
        </mxCell>
        <mxCell id="gGllVryrbf8ipJSGgLWO-80" value="" style="edgeStyle=orthogonalEdgeStyle;rounded=0;orthogonalLoop=1;jettySize=auto;html=1;startSize=0;endSize=0;sourcePerimeterSpacing=6;targetPerimeterSpacing=6;" parent="1" source="gGllVryrbf8ipJSGgLWO-66" target="gGllVryrbf8ipJSGgLWO-78" edge="1">
          <mxGeometry relative="1" as="geometry" />
        </mxCell>
        <mxCell id="gGllVryrbf8ipJSGgLWO-82" value="" style="edgeStyle=orthogonalEdgeStyle;rounded=0;orthogonalLoop=1;jettySize=auto;html=1;startSize=0;endSize=0;sourcePerimeterSpacing=6;targetPerimeterSpacing=6;" parent="1" source="gGllVryrbf8ipJSGgLWO-66" target="gGllVryrbf8ipJSGgLWO-81" edge="1">
          <mxGeometry relative="1" as="geometry" />
        </mxCell>
        <mxCell id="9b3V9Wi5WnPuCYdalmGk-14" value="" style="edgeStyle=orthogonalEdgeStyle;rounded=0;orthogonalLoop=1;jettySize=auto;html=1;" parent="1" source="gGllVryrbf8ipJSGgLWO-66" target="gGllVryrbf8ipJSGgLWO-50" edge="1">
          <mxGeometry relative="1" as="geometry">
            <Array as="points">
              <mxPoint x="30" y="570" />
            </Array>
          </mxGeometry>
        </mxCell>
        <mxCell id="9b3V9Wi5WnPuCYdalmGk-15" value="" style="edgeStyle=orthogonalEdgeStyle;rounded=0;orthogonalLoop=1;jettySize=auto;html=1;" parent="1" source="gGllVryrbf8ipJSGgLWO-66" target="gGllVryrbf8ipJSGgLWO-78" edge="1">
          <mxGeometry relative="1" as="geometry" />
        </mxCell>
        <mxCell id="gGllVryrbf8ipJSGgLWO-66" value="D" style="ellipse;whiteSpace=wrap;html=1;aspect=fixed;" parent="1" vertex="1">
          <mxGeometry x="345" y="550" width="40" height="40" as="geometry" />
        </mxCell>
        <mxCell id="gGllVryrbf8ipJSGgLWO-76" value="System Admin" style="whiteSpace=wrap;html=1;align=center;" parent="1" vertex="1">
          <mxGeometry x="95" y="590" width="100" height="40" as="geometry" />
        </mxCell>
        <mxCell id="gGllVryrbf8ipJSGgLWO-90" value="" style="edgeStyle=orthogonalEdgeStyle;rounded=0;orthogonalLoop=1;jettySize=auto;html=1;startSize=0;endSize=0;sourcePerimeterSpacing=6;targetPerimeterSpacing=6;" parent="1" source="gGllVryrbf8ipJSGgLWO-78" target="gGllVryrbf8ipJSGgLWO-89" edge="1">
          <mxGeometry relative="1" as="geometry" />
        </mxCell>
        <mxCell id="gGllVryrbf8ipJSGgLWO-78" value="Associative Manager" style="rounded=1;arcSize=10;whiteSpace=wrap;html=1;align=center;" parent="1" vertex="1">
          <mxGeometry x="450" y="750" width="100" height="40" as="geometry" />
        </mxCell>
        <mxCell id="gGllVryrbf8ipJSGgLWO-96" value="" style="edgeStyle=orthogonalEdgeStyle;rounded=0;orthogonalLoop=1;jettySize=auto;html=1;startSize=0;endSize=0;sourcePerimeterSpacing=6;targetPerimeterSpacing=6;" parent="1" source="gGllVryrbf8ipJSGgLWO-81" target="gGllVryrbf8ipJSGgLWO-93" edge="1">
          <mxGeometry relative="1" as="geometry" />
        </mxCell>
        <mxCell id="gGllVryrbf8ipJSGgLWO-100" value="" style="edgeStyle=orthogonalEdgeStyle;rounded=0;orthogonalLoop=1;jettySize=auto;html=1;startSize=0;endSize=0;sourcePerimeterSpacing=6;targetPerimeterSpacing=6;exitX=1;exitY=1;exitDx=0;exitDy=0;" parent="1" source="gGllVryrbf8ipJSGgLWO-81" target="gGllVryrbf8ipJSGgLWO-94" edge="1">
          <mxGeometry relative="1" as="geometry" />
        </mxCell>
        <mxCell id="9b3V9Wi5WnPuCYdalmGk-45" value="" style="edgeStyle=orthogonalEdgeStyle;rounded=0;orthogonalLoop=1;jettySize=auto;html=1;" parent="1" source="gGllVryrbf8ipJSGgLWO-81" target="9b3V9Wi5WnPuCYdalmGk-44" edge="1">
          <mxGeometry relative="1" as="geometry" />
        </mxCell>
        <mxCell id="9b3V9Wi5WnPuCYdalmGk-47" value="" style="edgeStyle=orthogonalEdgeStyle;rounded=0;orthogonalLoop=1;jettySize=auto;html=1;" parent="1" source="gGllVryrbf8ipJSGgLWO-81" target="gGllVryrbf8ipJSGgLWO-91" edge="1">
          <mxGeometry relative="1" as="geometry">
            <Array as="points">
              <mxPoint x="360" y="860" />
              <mxPoint x="313" y="860" />
            </Array>
          </mxGeometry>
        </mxCell>
        <mxCell id="gGllVryrbf8ipJSGgLWO-81" value="Fan" style="whiteSpace=wrap;html=1;align=center;" parent="1" vertex="1">
          <mxGeometry x="330" y="890" width="100" height="40" as="geometry" />
        </mxCell>
        <mxCell id="gGllVryrbf8ipJSGgLWO-83" value="ID" style="ellipse;whiteSpace=wrap;html=1;align=center;fontStyle=4;" parent="1" vertex="1">
          <mxGeometry x="450" y="475" width="50" height="30" as="geometry" />
        </mxCell>
        <mxCell id="gGllVryrbf8ipJSGgLWO-85" value="UserName" style="ellipse;whiteSpace=wrap;html=1;align=center;" parent="1" vertex="1">
          <mxGeometry x="340" y="420" width="60" height="30" as="geometry" />
        </mxCell>
        <mxCell id="gGllVryrbf8ipJSGgLWO-87" value="Password" style="ellipse;whiteSpace=wrap;html=1;align=center;" parent="1" vertex="1">
          <mxGeometry x="222.5" y="475" width="57.5" height="30" as="geometry" />
        </mxCell>
        <mxCell id="gGllVryrbf8ipJSGgLWO-89" value="Name" style="ellipse;whiteSpace=wrap;html=1;align=center;" parent="1" vertex="1">
          <mxGeometry x="585" y="760" width="40" height="20" as="geometry" />
        </mxCell>
        <mxCell id="gGllVryrbf8ipJSGgLWO-91" value="DOB" style="ellipse;whiteSpace=wrap;html=1;align=center;" parent="1" vertex="1">
          <mxGeometry x="280" y="800" width="65" height="30" as="geometry" />
        </mxCell>
        <mxCell id="gGllVryrbf8ipJSGgLWO-93" value="&amp;nbsp;Name" style="ellipse;whiteSpace=wrap;html=1;align=center;" parent="1" vertex="1">
          <mxGeometry x="500" y="900" width="70" height="30" as="geometry" />
        </mxCell>
        <mxCell id="gGllVryrbf8ipJSGgLWO-94" value="National_ID" style="ellipse;whiteSpace=wrap;html=1;align=center;" parent="1" vertex="1">
          <mxGeometry x="420" y="1020" width="75" height="30" as="geometry" />
        </mxCell>
        <mxCell id="gGllVryrbf8ipJSGgLWO-106" value="" style="edgeStyle=orthogonalEdgeStyle;rounded=0;orthogonalLoop=1;jettySize=auto;html=1;startSize=0;endSize=0;sourcePerimeterSpacing=6;targetPerimeterSpacing=6;" parent="1" source="gGllVryrbf8ipJSGgLWO-104" target="gGllVryrbf8ipJSGgLWO-105" edge="1">
          <mxGeometry relative="1" as="geometry" />
        </mxCell>
        <mxCell id="gGllVryrbf8ipJSGgLWO-108" value="" style="edgeStyle=orthogonalEdgeStyle;rounded=0;orthogonalLoop=1;jettySize=auto;html=1;startSize=0;endSize=0;sourcePerimeterSpacing=6;targetPerimeterSpacing=6;" parent="1" source="gGllVryrbf8ipJSGgLWO-104" target="gGllVryrbf8ipJSGgLWO-107" edge="1">
          <mxGeometry relative="1" as="geometry">
            <Array as="points">
              <mxPoint x="675" y="340" />
            </Array>
          </mxGeometry>
        </mxCell>
        <mxCell id="gGllVryrbf8ipJSGgLWO-110" value="" style="edgeStyle=orthogonalEdgeStyle;rounded=0;orthogonalLoop=1;jettySize=auto;html=1;startSize=0;endSize=0;sourcePerimeterSpacing=6;targetPerimeterSpacing=6;" parent="1" source="gGllVryrbf8ipJSGgLWO-104" target="gGllVryrbf8ipJSGgLWO-109" edge="1">
          <mxGeometry relative="1" as="geometry" />
        </mxCell>
        <mxCell id="gGllVryrbf8ipJSGgLWO-112" value="" style="edgeStyle=orthogonalEdgeStyle;rounded=0;orthogonalLoop=1;jettySize=auto;html=1;startSize=0;endSize=0;sourcePerimeterSpacing=6;targetPerimeterSpacing=6;" parent="1" source="gGllVryrbf8ipJSGgLWO-104" target="gGllVryrbf8ipJSGgLWO-111" edge="1">
          <mxGeometry relative="1" as="geometry" />
        </mxCell>
        <mxCell id="gGllVryrbf8ipJSGgLWO-104" value="Matches" style="whiteSpace=wrap;html=1;align=center;" parent="1" vertex="1">
          <mxGeometry x="625" y="320" width="100" height="40" as="geometry" />
        </mxCell>
        <mxCell id="gGllVryrbf8ipJSGgLWO-105" value="ID" style="ellipse;whiteSpace=wrap;html=1;align=center;fontStyle=4;" parent="1" vertex="1">
          <mxGeometry x="500" y="300" width="65" height="20" as="geometry" />
        </mxCell>
        <mxCell id="gGllVryrbf8ipJSGgLWO-107" value="Start_Time" style="ellipse;whiteSpace=wrap;html=1;align=center;" parent="1" vertex="1">
          <mxGeometry x="855" y="325" width="60" height="30" as="geometry" />
        </mxCell>
        <mxCell id="gGllVryrbf8ipJSGgLWO-109" value="End_Time" style="ellipse;whiteSpace=wrap;html=1;align=center;" parent="1" vertex="1">
          <mxGeometry x="470" y="350" width="60" height="25" as="geometry" />
        </mxCell>
        <mxCell id="gGllVryrbf8ipJSGgLWO-111" value="Allowed_Attendees" style="ellipse;whiteSpace=wrap;html=1;align=center;" parent="1" vertex="1">
          <mxGeometry x="525.25" y="390" width="107.5" height="40" as="geometry" />
        </mxCell>
        <mxCell id="gGllVryrbf8ipJSGgLWO-115" value="" style="edgeStyle=orthogonalEdgeStyle;rounded=0;orthogonalLoop=1;jettySize=auto;html=1;startSize=0;endSize=0;sourcePerimeterSpacing=6;targetPerimeterSpacing=6;" parent="1" source="gGllVryrbf8ipJSGgLWO-113" target="gGllVryrbf8ipJSGgLWO-114" edge="1">
          <mxGeometry relative="1" as="geometry" />
        </mxCell>
        <mxCell id="gGllVryrbf8ipJSGgLWO-117" value="" style="edgeStyle=orthogonalEdgeStyle;rounded=0;orthogonalLoop=1;jettySize=auto;html=1;startSize=0;endSize=0;sourcePerimeterSpacing=6;targetPerimeterSpacing=6;" parent="1" source="gGllVryrbf8ipJSGgLWO-113" target="gGllVryrbf8ipJSGgLWO-116" edge="1">
          <mxGeometry relative="1" as="geometry" />
        </mxCell>
        <mxCell id="gGllVryrbf8ipJSGgLWO-113" value="Ticket" style="shape=ext;margin=3;double=1;whiteSpace=wrap;html=1;align=center;" parent="1" vertex="1">
          <mxGeometry x="910" y="780" width="100" height="40" as="geometry" />
        </mxCell>
        <mxCell id="gGllVryrbf8ipJSGgLWO-114" value="&lt;span style=&quot;border-bottom: 1px dotted&quot;&gt;ID&lt;/span&gt;" style="ellipse;whiteSpace=wrap;html=1;align=center;" parent="1" vertex="1">
          <mxGeometry x="1090" y="870" width="50" height="30" as="geometry" />
        </mxCell>
        <mxCell id="gGllVryrbf8ipJSGgLWO-116" value="Status" style="ellipse;whiteSpace=wrap;html=1;align=center;" parent="1" vertex="1">
          <mxGeometry x="1144.29" y="722.5" width="60" height="17.5" as="geometry" />
        </mxCell>
        <mxCell id="Ex0EIse3YdcYi0-qsqE2-4" value="" style="edgeStyle=entityRelationEdgeStyle;fontSize=12;html=1;endArrow=ERzeroToMany;startArrow=none;rounded=0;entryX=1;entryY=0.75;entryDx=0;entryDy=0;" parent="1" source="gGllVryrbf8ipJSGgLWO-118" target="gGllVryrbf8ipJSGgLWO-104" edge="1">
          <mxGeometry width="100" height="100" relative="1" as="geometry">
            <mxPoint x="775" y="600" as="sourcePoint" />
            <mxPoint x="795" y="360" as="targetPoint" />
          </mxGeometry>
        </mxCell>
        <mxCell id="gGllVryrbf8ipJSGgLWO-118" value="Managed by" style="shape=rhombus;perimeter=rhombusPerimeter;whiteSpace=wrap;html=1;align=center;" parent="1" vertex="1">
          <mxGeometry x="655" y="430" width="120" height="60" as="geometry" />
        </mxCell>
        <mxCell id="Ex0EIse3YdcYi0-qsqE2-5" value="" style="edgeStyle=entityRelationEdgeStyle;fontSize=12;html=1;endArrow=none;startArrow=ERmandOne;rounded=0;entryX=0.5;entryY=1;entryDx=0;entryDy=0;exitX=0.928;exitY=-0.094;exitDx=0;exitDy=0;exitPerimeter=0;" parent="1" source="gGllVryrbf8ipJSGgLWO-78" target="gGllVryrbf8ipJSGgLWO-118" edge="1">
          <mxGeometry width="100" height="100" relative="1" as="geometry">
            <mxPoint x="500" y="750" as="sourcePoint" />
            <mxPoint x="464" y="301.25" as="targetPoint" />
          </mxGeometry>
        </mxCell>
        <mxCell id="Ex0EIse3YdcYi0-qsqE2-30" value="Played_in" style="shape=rhombus;perimeter=rhombusPerimeter;whiteSpace=wrap;html=1;align=center;" parent="1" vertex="1">
          <mxGeometry x="785" y="260" width="85" height="45" as="geometry" />
        </mxCell>
        <mxCell id="Ex0EIse3YdcYi0-qsqE2-31" value="" style="edgeStyle=entityRelationEdgeStyle;fontSize=12;html=1;endArrow=ERzeroToMany;endFill=1;rounded=0;exitX=0;exitY=0.5;exitDx=0;exitDy=0;entryX=1;entryY=0;entryDx=0;entryDy=0;" parent="1" source="Ex0EIse3YdcYi0-qsqE2-30" target="gGllVryrbf8ipJSGgLWO-104" edge="1">
          <mxGeometry width="100" height="100" relative="1" as="geometry">
            <mxPoint x="725" y="325" as="sourcePoint" />
            <mxPoint x="825" y="225" as="targetPoint" />
          </mxGeometry>
        </mxCell>
        <mxCell id="Ex0EIse3YdcYi0-qsqE2-33" value="" style="edgeStyle=entityRelationEdgeStyle;fontSize=12;html=1;endArrow=ERmandOne;rounded=0;entryX=0;entryY=1;entryDx=0;entryDy=0;" parent="1" target="gGllVryrbf8ipJSGgLWO-13" edge="1">
          <mxGeometry width="100" height="100" relative="1" as="geometry">
            <mxPoint x="870" y="283" as="sourcePoint" />
            <mxPoint x="1080" y="-7" as="targetPoint" />
          </mxGeometry>
        </mxCell>
        <mxCell id="Ex0EIse3YdcYi0-qsqE2-36" value="" style="edgeStyle=entityRelationEdgeStyle;fontSize=12;html=1;endArrow=ERmandOne;startArrow=none;rounded=0;entryX=0;entryY=0.5;entryDx=0;entryDy=0;exitX=0.597;exitY=-0.056;exitDx=0;exitDy=0;exitPerimeter=0;" parent="1" source="Ex0EIse3YdcYi0-qsqE2-35" target="gGllVryrbf8ipJSGgLWO-12" edge="1">
          <mxGeometry width="100" height="100" relative="1" as="geometry">
            <mxPoint x="200" y="140" as="sourcePoint" />
            <mxPoint x="300" y="40" as="targetPoint" />
          </mxGeometry>
        </mxCell>
        <mxCell id="Ex0EIse3YdcYi0-qsqE2-37" style="edgeStyle=orthogonalEdgeStyle;rounded=0;orthogonalLoop=1;jettySize=auto;html=1;exitX=0.5;exitY=1;exitDx=0;exitDy=0;" parent="1" source="Ex0EIse3YdcYi0-qsqE2-35" target="Ex0EIse3YdcYi0-qsqE2-35" edge="1">
          <mxGeometry relative="1" as="geometry" />
        </mxCell>
        <mxCell id="Ex0EIse3YdcYi0-qsqE2-35" value="Has" style="shape=rhombus;double=1;perimeter=rhombusPerimeter;whiteSpace=wrap;html=1;align=center;" parent="1" vertex="1">
          <mxGeometry x="195" y="85" width="100" height="45" as="geometry" />
        </mxCell>
        <mxCell id="Ex0EIse3YdcYi0-qsqE2-38" value="" style="edgeStyle=entityRelationEdgeStyle;fontSize=12;html=1;endArrow=none;startArrow=ERmandOne;rounded=0;entryX=0;entryY=0.5;entryDx=0;entryDy=0;exitX=0.89;exitY=0.978;exitDx=0;exitDy=0;exitPerimeter=0;" parent="1" source="gGllVryrbf8ipJSGgLWO-50" target="Ex0EIse3YdcYi0-qsqE2-35" edge="1">
          <mxGeometry width="100" height="100" relative="1" as="geometry">
            <mxPoint x="70" y="-190" as="sourcePoint" />
            <mxPoint x="425" y="85" as="targetPoint" />
          </mxGeometry>
        </mxCell>
        <mxCell id="Ex0EIse3YdcYi0-qsqE2-46" value="" style="edgeStyle=entityRelationEdgeStyle;fontSize=12;html=1;endArrow=ERmandOne;startArrow=none;rounded=0;entryX=1;entryY=0;entryDx=0;entryDy=0;exitX=0;exitY=0;exitDx=0;exitDy=0;" parent="1" source="Ex0EIse3YdcYi0-qsqE2-39" target="gGllVryrbf8ipJSGgLWO-13" edge="1">
          <mxGeometry width="100" height="100" relative="1" as="geometry">
            <mxPoint x="1020" y="130" as="sourcePoint" />
            <mxPoint x="1120" y="30" as="targetPoint" />
          </mxGeometry>
        </mxCell>
        <mxCell id="Ex0EIse3YdcYi0-qsqE2-39" value="has" style="shape=rhombus;double=1;perimeter=rhombusPerimeter;whiteSpace=wrap;html=1;align=center;" parent="1" vertex="1">
          <mxGeometry x="1370" y="340" width="90" height="50" as="geometry" />
        </mxCell>
        <mxCell id="Ex0EIse3YdcYi0-qsqE2-47" value="" style="edgeStyle=entityRelationEdgeStyle;fontSize=12;html=1;endArrow=none;startArrow=ERmandOne;rounded=0;entryX=1;entryY=0;entryDx=0;entryDy=0;exitX=0;exitY=0;exitDx=0;exitDy=0;" parent="1" source="gGllVryrbf8ipJSGgLWO-57" target="Ex0EIse3YdcYi0-qsqE2-39" edge="1">
          <mxGeometry width="100" height="100" relative="1" as="geometry">
            <mxPoint x="960" y="210" as="sourcePoint" />
            <mxPoint x="775" y="20" as="targetPoint" />
          </mxGeometry>
        </mxCell>
        <mxCell id="Ex0EIse3YdcYi0-qsqE2-56" style="edgeStyle=orthogonalEdgeStyle;rounded=0;orthogonalLoop=1;jettySize=auto;html=1;exitX=0.5;exitY=1;exitDx=0;exitDy=0;" parent="1" edge="1">
          <mxGeometry relative="1" as="geometry">
            <mxPoint x="640" y="287.5" as="sourcePoint" />
            <mxPoint x="640" y="287.5" as="targetPoint" />
          </mxGeometry>
        </mxCell>
        <mxCell id="Ex0EIse3YdcYi0-qsqE2-67" value="" style="edgeStyle=entityRelationEdgeStyle;fontSize=12;html=1;endArrow=ERoneToMany;startArrow=none;rounded=0;exitX=0.5;exitY=1;exitDx=0;exitDy=0;entryX=1;entryY=0;entryDx=0;entryDy=0;" parent="1" source="Ex0EIse3YdcYi0-qsqE2-65" target="gGllVryrbf8ipJSGgLWO-113" edge="1">
          <mxGeometry width="100" height="100" relative="1" as="geometry">
            <mxPoint x="700" y="580" as="sourcePoint" />
            <mxPoint x="920" y="820" as="targetPoint" />
          </mxGeometry>
        </mxCell>
        <mxCell id="Ex0EIse3YdcYi0-qsqE2-65" value="Has" style="shape=rhombus;double=1;perimeter=rhombusPerimeter;whiteSpace=wrap;html=1;align=center;" parent="1" vertex="1">
          <mxGeometry x="1040" y="440" width="120" height="60" as="geometry" />
        </mxCell>
        <mxCell id="Ex0EIse3YdcYi0-qsqE2-68" value="" style="edgeStyle=entityRelationEdgeStyle;fontSize=12;html=1;endArrow=none;startArrow=ERmandOne;rounded=0;entryX=0;entryY=0.5;entryDx=0;entryDy=0;exitX=0.135;exitY=1.11;exitDx=0;exitDy=0;exitPerimeter=0;" parent="1" source="gGllVryrbf8ipJSGgLWO-104" target="Ex0EIse3YdcYi0-qsqE2-65" edge="1">
          <mxGeometry width="100" height="100" relative="1" as="geometry">
            <mxPoint x="473.5" y="309.4" as="sourcePoint" />
            <mxPoint x="980" y="410" as="targetPoint" />
          </mxGeometry>
        </mxCell>
        <mxCell id="Ex0EIse3YdcYi0-qsqE2-70" value="" style="edgeStyle=entityRelationEdgeStyle;fontSize=12;html=1;endArrow=ERzeroToMany;startArrow=none;rounded=0;entryX=0;entryY=1;entryDx=0;entryDy=0;" parent="1" source="Ex0EIse3YdcYi0-qsqE2-69" target="gGllVryrbf8ipJSGgLWO-113" edge="1">
          <mxGeometry width="100" height="100" relative="1" as="geometry">
            <mxPoint x="400" y="700" as="sourcePoint" />
            <mxPoint x="850" y="530" as="targetPoint" />
          </mxGeometry>
        </mxCell>
        <mxCell id="Ex0EIse3YdcYi0-qsqE2-69" value="Owns" style="shape=rhombus;perimeter=rhombusPerimeter;whiteSpace=wrap;html=1;align=center;" parent="1" vertex="1">
          <mxGeometry x="680" y="820" width="120" height="60" as="geometry" />
        </mxCell>
        <mxCell id="Ex0EIse3YdcYi0-qsqE2-71" value="" style="edgeStyle=entityRelationEdgeStyle;fontSize=12;html=1;endArrow=none;startArrow=ERmandOne;rounded=0;entryX=0.5;entryY=1;entryDx=0;entryDy=0;exitX=0.75;exitY=0;exitDx=0;exitDy=0;" parent="1" source="gGllVryrbf8ipJSGgLWO-81" target="Ex0EIse3YdcYi0-qsqE2-69" edge="1">
          <mxGeometry width="100" height="100" relative="1" as="geometry">
            <mxPoint x="400" y="700" as="sourcePoint" />
            <mxPoint x="980" y="430" as="targetPoint" />
          </mxGeometry>
        </mxCell>
        <mxCell id="Ex0EIse3YdcYi0-qsqE2-74" value="Permission_Status" style="ellipse;whiteSpace=wrap;html=1;align=center;" parent="1" vertex="1">
          <mxGeometry x="1089.29" y="-300" width="110" height="40" as="geometry" />
        </mxCell>
        <mxCell id="Ex0EIse3YdcYi0-qsqE2-76" value="" style="edgeStyle=entityRelationEdgeStyle;fontSize=12;html=1;endArrow=ERzeroToMany;endFill=1;startArrow=none;rounded=0;entryX=0.25;entryY=0;entryDx=0;entryDy=0;exitX=0.557;exitY=0.966;exitDx=0;exitDy=0;exitPerimeter=0;" parent="1" source="Ex0EIse3YdcYi0-qsqE2-73" target="gGllVryrbf8ipJSGgLWO-57" edge="1">
          <mxGeometry width="100" height="100" relative="1" as="geometry">
            <mxPoint x="160" y="-60" as="sourcePoint" />
            <mxPoint x="1180" y="-60" as="targetPoint" />
          </mxGeometry>
        </mxCell>
        <mxCell id="Ex0EIse3YdcYi0-qsqE2-78" value="" style="edgeStyle=orthogonalEdgeStyle;rounded=0;orthogonalLoop=1;jettySize=auto;html=1;" parent="1" source="Ex0EIse3YdcYi0-qsqE2-73" target="Ex0EIse3YdcYi0-qsqE2-74" edge="1">
          <mxGeometry relative="1" as="geometry" />
        </mxCell>
        <mxCell id="f9ocBkbrwFCw9ClZZ6c2-7" value="" style="edgeStyle=orthogonalEdgeStyle;rounded=0;orthogonalLoop=1;jettySize=auto;html=1;" edge="1" parent="1" source="Ex0EIse3YdcYi0-qsqE2-73" target="f9ocBkbrwFCw9ClZZ6c2-2">
          <mxGeometry relative="1" as="geometry" />
        </mxCell>
        <mxCell id="f9ocBkbrwFCw9ClZZ6c2-8" value="" style="edgeStyle=orthogonalEdgeStyle;rounded=0;orthogonalLoop=1;jettySize=auto;html=1;" edge="1" parent="1" source="Ex0EIse3YdcYi0-qsqE2-73" target="f9ocBkbrwFCw9ClZZ6c2-1">
          <mxGeometry relative="1" as="geometry">
            <Array as="points">
              <mxPoint x="1230" y="-215" />
              <mxPoint x="1325" y="-215" />
            </Array>
          </mxGeometry>
        </mxCell>
        <mxCell id="Ex0EIse3YdcYi0-qsqE2-73" value="Requests_Permission" style="shape=rhombus;perimeter=rhombusPerimeter;whiteSpace=wrap;html=1;align=center;" parent="1" vertex="1">
          <mxGeometry x="1144.29" y="-170" width="140" height="80" as="geometry" />
        </mxCell>
        <mxCell id="Ex0EIse3YdcYi0-qsqE2-77" value="" style="edgeStyle=entityRelationEdgeStyle;fontSize=12;html=1;endArrow=none;endFill=1;startArrow=ERzeroToMany;rounded=0;entryX=0.25;entryY=0;entryDx=0;entryDy=0;exitX=0.99;exitY=0.357;exitDx=0;exitDy=0;exitPerimeter=0;" parent="1" source="gGllVryrbf8ipJSGgLWO-50" target="Ex0EIse3YdcYi0-qsqE2-73" edge="1">
          <mxGeometry width="100" height="100" relative="1" as="geometry">
            <mxPoint x="30" y="-180" as="sourcePoint" />
            <mxPoint x="985" y="210" as="targetPoint" />
          </mxGeometry>
        </mxCell>
        <mxCell id="Ex0EIse3YdcYi0-qsqE2-81" value="" style="edgeStyle=entityRelationEdgeStyle;fontSize=12;html=1;endArrow=ERzeroToMany;startArrow=none;rounded=0;exitX=1;exitY=0.5;exitDx=0;exitDy=0;entryX=0.75;entryY=1;entryDx=0;entryDy=0;" parent="1" source="Ex0EIse3YdcYi0-qsqE2-79" target="gGllVryrbf8ipJSGgLWO-81" edge="1">
          <mxGeometry width="100" height="100" relative="1" as="geometry">
            <mxPoint x="195" y="930" as="sourcePoint" />
            <mxPoint x="410" y="880" as="targetPoint" />
          </mxGeometry>
        </mxCell>
        <mxCell id="Ex0EIse3YdcYi0-qsqE2-79" value="Block" style="shape=rhombus;perimeter=rhombusPerimeter;whiteSpace=wrap;html=1;align=center;" parent="1" vertex="1">
          <mxGeometry x="254.5" y="1110" width="105" height="50" as="geometry" />
        </mxCell>
        <mxCell id="9b3V9Wi5WnPuCYdalmGk-7" value="" style="edgeStyle=entityRelationEdgeStyle;fontSize=12;html=1;endArrow=ERzeroToMany;startArrow=none;rounded=0;entryX=0.25;entryY=0;entryDx=0;entryDy=0;exitX=0;exitY=0;exitDx=0;exitDy=0;" parent="1" source="9b3V9Wi5WnPuCYdalmGk-1" target="gGllVryrbf8ipJSGgLWO-104" edge="1">
          <mxGeometry width="100" height="100" relative="1" as="geometry">
            <mxPoint x="460" y="160" as="sourcePoint" />
            <mxPoint x="350" y="170" as="targetPoint" />
          </mxGeometry>
        </mxCell>
        <mxCell id="9b3V9Wi5WnPuCYdalmGk-1" value="Host" style="shape=rhombus;perimeter=rhombusPerimeter;whiteSpace=wrap;html=1;align=center;direction=west;" parent="1" vertex="1">
          <mxGeometry x="385" y="155" width="85" height="40" as="geometry" />
        </mxCell>
        <mxCell id="9b3V9Wi5WnPuCYdalmGk-8" value="" style="edgeStyle=entityRelationEdgeStyle;fontSize=12;html=1;endArrow=none;startArrow=ERmandOne;rounded=0;exitX=0.125;exitY=1.025;exitDx=0;exitDy=0;exitPerimeter=0;entryX=0.5;entryY=1;entryDx=0;entryDy=0;" parent="1" source="gGllVryrbf8ipJSGgLWO-12" target="9b3V9Wi5WnPuCYdalmGk-1" edge="1">
          <mxGeometry width="100" height="100" relative="1" as="geometry">
            <mxPoint x="437.5" y="105.99999999999955" as="sourcePoint" />
            <mxPoint x="450" y="185" as="targetPoint" />
          </mxGeometry>
        </mxCell>
        <mxCell id="9b3V9Wi5WnPuCYdalmGk-9" value="" style="edgeStyle=entityRelationEdgeStyle;fontSize=12;html=1;endArrow=ERzeroToMany;startArrow=none;rounded=0;entryX=0.75;entryY=0;entryDx=0;entryDy=0;exitX=0.75;exitY=1;exitDx=0;exitDy=0;" parent="1" source="9b3V9Wi5WnPuCYdalmGk-2" target="gGllVryrbf8ipJSGgLWO-104" edge="1">
          <mxGeometry width="100" height="100" relative="1" as="geometry">
            <mxPoint x="500" y="240" as="sourcePoint" />
            <mxPoint x="600" y="140" as="targetPoint" />
          </mxGeometry>
        </mxCell>
        <mxCell id="9b3V9Wi5WnPuCYdalmGk-2" value="Guest" style="shape=rhombus;perimeter=rhombusPerimeter;whiteSpace=wrap;html=1;align=center;" parent="1" vertex="1">
          <mxGeometry x="495" y="145" width="65" height="50" as="geometry" />
        </mxCell>
        <mxCell id="9b3V9Wi5WnPuCYdalmGk-12" value="" style="edgeStyle=entityRelationEdgeStyle;fontSize=12;html=1;endArrow=none;startArrow=ERmandOne;rounded=0;exitX=0.75;exitY=1;exitDx=0;exitDy=0;entryX=0.5;entryY=0;entryDx=0;entryDy=0;" parent="1" source="gGllVryrbf8ipJSGgLWO-12" target="9b3V9Wi5WnPuCYdalmGk-2" edge="1">
          <mxGeometry width="100" height="100" relative="1" as="geometry">
            <mxPoint x="500" y="105" as="sourcePoint" />
            <mxPoint x="513" y="150" as="targetPoint" />
          </mxGeometry>
        </mxCell>
        <mxCell id="9b3V9Wi5WnPuCYdalmGk-22" value="" style="verticalLabelPosition=bottom;verticalAlign=top;html=1;shape=mxgraph.basic.arc;startAngle=0.3;endAngle=0.1;direction=west;rotation=25;" parent="1" vertex="1">
          <mxGeometry x="1149.29" y="543.19" width="50" height="50" as="geometry" />
        </mxCell>
        <mxCell id="9b3V9Wi5WnPuCYdalmGk-23" value="" style="edgeStyle=orthogonalEdgeStyle;rounded=0;orthogonalLoop=1;jettySize=auto;html=1;endArrow=none;" parent="1" source="gGllVryrbf8ipJSGgLWO-57" target="9b3V9Wi5WnPuCYdalmGk-22" edge="1">
          <mxGeometry relative="1" as="geometry">
            <mxPoint x="1600" y="570" as="sourcePoint" />
            <mxPoint x="385" y="570" as="targetPoint" />
          </mxGeometry>
        </mxCell>
        <mxCell id="9b3V9Wi5WnPuCYdalmGk-24" value="" style="verticalLabelPosition=bottom;verticalAlign=top;html=1;shape=mxgraph.basic.arc;startAngle=0.3;endAngle=0.1;rotation=45;" parent="1" vertex="1">
          <mxGeometry y="475" width="60" height="40" as="geometry" />
        </mxCell>
        <mxCell id="9b3V9Wi5WnPuCYdalmGk-26" value="" style="verticalLabelPosition=bottom;verticalAlign=top;html=1;shape=mxgraph.basic.arc;startAngle=0.3;endAngle=0.1;direction=north;rotation=30;" parent="1" vertex="1">
          <mxGeometry x="335" y="610" width="50" height="35" as="geometry" />
        </mxCell>
        <mxCell id="9b3V9Wi5WnPuCYdalmGk-28" value="" style="verticalLabelPosition=bottom;verticalAlign=top;html=1;shape=mxgraph.basic.arc;startAngle=0.3;endAngle=0.1;rotation=-105;direction=south;" parent="1" vertex="1">
          <mxGeometry x="200.5" y="590" width="44.23" height="41.15" as="geometry" />
        </mxCell>
        <mxCell id="9b3V9Wi5WnPuCYdalmGk-30" value="" style="verticalLabelPosition=bottom;verticalAlign=top;html=1;shape=mxgraph.basic.arc;startAngle=0.3;endAngle=0.1;direction=north;" parent="1" vertex="1">
          <mxGeometry x="473.405" y="645.005" width="53.19" height="30" as="geometry" />
        </mxCell>
        <mxCell id="9b3V9Wi5WnPuCYdalmGk-44" value="block_end_date" style="ellipse;whiteSpace=wrap;html=1;align=center;" parent="1" vertex="1">
          <mxGeometry x="50" y="890" width="100" height="40" as="geometry" />
        </mxCell>
        <mxCell id="9b3V9Wi5WnPuCYdalmGk-67" value="" style="edgeStyle=entityRelationEdgeStyle;fontSize=12;html=1;endArrow=ERzeroToOne;endFill=1;rounded=0;entryX=0.433;entryY=1.011;entryDx=0;entryDy=0;entryPerimeter=0;exitX=0;exitY=0.5;exitDx=0;exitDy=0;" parent="1" source="Ex0EIse3YdcYi0-qsqE2-79" target="gGllVryrbf8ipJSGgLWO-76" edge="1">
          <mxGeometry width="100" height="100" relative="1" as="geometry">
            <mxPoint x="110" y="840" as="sourcePoint" />
            <mxPoint x="210" y="740" as="targetPoint" />
          </mxGeometry>
        </mxCell>
        <mxCell id="f9ocBkbrwFCw9ClZZ6c2-1" value="Start_time" style="ellipse;whiteSpace=wrap;html=1;align=center;" vertex="1" parent="1">
          <mxGeometry x="1280" y="-300" width="90" height="40" as="geometry" />
        </mxCell>
        <mxCell id="f9ocBkbrwFCw9ClZZ6c2-2" value="End_time" style="ellipse;whiteSpace=wrap;html=1;align=center;" vertex="1" parent="1">
          <mxGeometry x="1340" y="-150" width="90" height="40" as="geometry" />
        </mxCell>
      </root>
    </mxGraphModel>
  </diagram>
</mxfile>
